<?xml version="1.0" encoding="UTF-8"?>
<svg id="Layer_2" data-name="Layer 2" xmlns="http://www.w3.org/2000/svg" viewBox="0 0 9.52 12.7">
  <defs>
    <style>
      .cls-1 {
        fill: #231f20;
        stroke-width: 0px;
      }
    </style>
  </defs>
  <g id="Layer_1-2" data-name="Layer 1">
    <g>
      <path class="cls-1" d="m7.82,1.68h-3.2l.98-.98-.71-.71-2.18,2.18,2.18,2.18.71-.71-.98-.98h3.2c.39,0,.7.31.7.7v7.78h1V3.38c0-.94-.76-1.7-1.7-1.7Z"/>
      <path class="cls-1" d="m3.65,9.04l.98.98H1.7c-.39,0-.7-.31-.7-.7V1.52H0v7.8c0,.94.76,1.7,1.7,1.7h2.92l-.98.98.71.71,2.18-2.18-2.18-2.18-.71.71Z"/>
    </g>
  </g>
</svg>